<svg xmlns="http://www.w3.org/2000/svg" width="256" height="256" viewBox="0 0 256 256" role="img" aria-label="JSCA">
  <defs>
    <linearGradient id="g" x1="0" y1="0" x2="1" y2="1">
      <stop offset="0" stop-color="#0f6b3a"/>
      <stop offset="1" stop-color="#0a3f22"/>
    </linearGradient>
  </defs>
  <circle cx="128" cy="128" r="120" fill="url(#g)"/>
  <circle cx="128" cy="128" r="106" fill="none" stroke="#f1d36a" stroke-width="10"/>
  <circle cx="128" cy="128" r="78" fill="#1f8a4d" opacity="0.16"/>
  <path d="M128 68c15 0 28 13 28 28 0 9-5 17-12 22 20 8 34 28 34 51v4H78v-4c0-23 14-43 34-51-7-5-12-13-12-22 0-15 13-28 28-28z"
        fill="#ffffff" opacity="0.06"/>
  <path d="M128 82c-10 0-18 8-18 18 0 7 4 13 10 16l8 4 8-4c6-3 10-9 10-16 0-10-8-18-18-18z"
        fill="#ffffff" opacity="0.08"/>
  <g fill="#f1d36a" font-family="system-ui, -apple-system, Segoe UI, Roboto, Arial, sans-serif" font-weight="800">
    <text x="128" y="120" text-anchor="middle" font-size="44" letter-spacing="3">JSCA</text>
    <text x="128" y="154" text-anchor="middle" font-size="18" letter-spacing="4">AGHBALOU</text>
    <text x="128" y="178" text-anchor="middle" font-size="14" letter-spacing="3">1986</text>
  </g>
</svg>
